<svg xmlns="http://www.w3.org/2000/svg" xmlns:xlink="http://www.w3.org/1999/xlink" width="816" zoomAndPan="magnify" viewBox="0 0 612 197.999996" height="264" preserveAspectRatio="xMidYMid meet" version="1.0"><defs><g/><clipPath id="ff5e967adc"><path d="M 468.554688 0 L 497.589844 0 L 497.589844 14.519531 L 468.554688 14.519531 Z M 468.554688 0 " clip-rule="nonzero"/></clipPath><clipPath id="dc9cdb16ac"><path d="M 483.070312 -14.519531 C 475.054688 -14.519531 468.554688 -8.019531 468.554688 0 C 468.554688 8.019531 475.054688 14.519531 483.070312 14.519531 C 491.089844 14.519531 497.589844 8.019531 497.589844 0 C 497.589844 -8.019531 491.089844 -14.519531 483.070312 -14.519531 Z M 483.070312 -14.519531 " clip-rule="nonzero"/></clipPath><clipPath id="624206f00b"><path d="M 601.445312 14.207031 L 612 14.207031 L 612 35.320312 L 601.445312 35.320312 Z M 601.445312 14.207031 " clip-rule="nonzero"/></clipPath><clipPath id="ea31ecbbe4"><path d="M 612 14.207031 C 606.171875 14.207031 601.445312 18.933594 601.445312 24.761719 C 601.445312 30.59375 606.171875 35.320312 612 35.320312 C 617.828125 35.320312 622.554688 30.59375 622.554688 24.761719 C 622.554688 18.933594 617.828125 14.207031 612 14.207031 Z M 612 14.207031 " clip-rule="nonzero"/></clipPath><clipPath id="1c1b365fb1"><path d="M 601.445312 51.324219 L 612 51.324219 L 612 72.4375 L 601.445312 72.4375 Z M 601.445312 51.324219 " clip-rule="nonzero"/></clipPath><clipPath id="40fd0847b0"><path d="M 612 51.324219 C 606.171875 51.324219 601.445312 56.050781 601.445312 61.882812 C 601.445312 67.710938 606.171875 72.4375 612 72.4375 C 617.828125 72.4375 622.554688 67.710938 622.554688 61.882812 C 622.554688 56.050781 617.828125 51.324219 612 51.324219 Z M 612 51.324219 " clip-rule="nonzero"/></clipPath><clipPath id="fb6e659f50"><path d="M 601.445312 88.445312 L 612 88.445312 L 612 109.554688 L 601.445312 109.554688 Z M 601.445312 88.445312 " clip-rule="nonzero"/></clipPath><clipPath id="f0b1ce6e19"><path d="M 612 88.445312 C 606.171875 88.445312 601.445312 93.171875 601.445312 99 C 601.445312 104.828125 606.171875 109.554688 612 109.554688 C 617.828125 109.554688 622.554688 104.828125 622.554688 99 C 622.554688 93.171875 617.828125 88.445312 612 88.445312 Z M 612 88.445312 " clip-rule="nonzero"/></clipPath><clipPath id="ab8f9341c0"><path d="M 601.445312 125.5625 L 612 125.5625 L 612 146.675781 L 601.445312 146.675781 Z M 601.445312 125.5625 " clip-rule="nonzero"/></clipPath><clipPath id="3c94edee88"><path d="M 612 125.5625 C 606.171875 125.5625 601.445312 130.289062 601.445312 136.117188 C 601.445312 141.949219 606.171875 146.675781 612 146.675781 C 617.828125 146.675781 622.554688 141.949219 622.554688 136.117188 C 622.554688 130.289062 617.828125 125.5625 612 125.5625 Z M 612 125.5625 " clip-rule="nonzero"/></clipPath><clipPath id="434058c18c"><path d="M 601.445312 162.679688 L 612 162.679688 L 612 183.792969 L 601.445312 183.792969 Z M 601.445312 162.679688 " clip-rule="nonzero"/></clipPath><clipPath id="ab37cc05f4"><path d="M 612 162.679688 C 606.171875 162.679688 601.445312 167.40625 601.445312 173.238281 C 601.445312 179.066406 606.171875 183.792969 612 183.792969 C 617.828125 183.792969 622.554688 179.066406 622.554688 173.238281 C 622.554688 167.40625 617.828125 162.679688 612 162.679688 Z M 612 162.679688 " clip-rule="nonzero"/></clipPath><clipPath id="02893c100e"><path d="M 468.554688 183.480469 L 497.589844 183.480469 L 497.589844 198 L 468.554688 198 Z M 468.554688 183.480469 " clip-rule="nonzero"/></clipPath><clipPath id="1a26e76c1c"><path d="M 483.070312 183.480469 C 475.054688 183.480469 468.554688 189.980469 468.554688 198 C 468.554688 206.019531 475.054688 212.519531 483.070312 212.519531 C 491.089844 212.519531 497.589844 206.019531 497.589844 198 C 497.589844 189.980469 491.089844 183.480469 483.070312 183.480469 Z M 483.070312 183.480469 " clip-rule="nonzero"/></clipPath><clipPath id="47118b4cbe"><path d="M 0 84.480469 L 12.300781 84.480469 L 12.300781 113.519531 L 0 113.519531 Z M 0 84.480469 " clip-rule="nonzero"/></clipPath><clipPath id="2a4d8b7b31"><path d="M -2.21875 84.480469 C -10.234375 84.480469 -16.734375 90.980469 -16.734375 99 C -16.734375 107.019531 -10.234375 113.519531 -2.21875 113.519531 C 5.800781 113.519531 12.300781 107.019531 12.300781 99 C 12.300781 90.980469 5.800781 84.480469 -2.21875 84.480469 Z M -2.21875 84.480469 " clip-rule="nonzero"/></clipPath></defs><rect x="-61.2" width="734.4" fill="#ffffff" y="-19.8" height="237.599995" fill-opacity="1"/><rect x="-61.2" width="734.4" fill="#b3221c" y="-19.8" height="237.599995" fill-opacity="1"/><path fill="#000000" d="M 482.316406 213.472656 L 482.316406 208.972656 L 483.816406 208.972656 L 483.816406 213.472656 M 482.316406 207.472656 L 482.316406 202.972656 L 483.816406 202.972656 L 483.816406 207.472656 M 482.316406 201.472656 L 482.316406 196.972656 L 483.816406 196.972656 L 483.816406 201.472656 M 482.316406 195.472656 L 482.316406 190.972656 L 483.816406 190.972656 L 483.816406 195.472656 M 482.316406 189.472656 L 482.316406 184.972656 L 483.816406 184.972656 L 483.816406 189.472656 M 482.316406 183.472656 L 482.316406 178.972656 L 483.816406 178.972656 L 483.816406 183.472656 M 482.316406 177.472656 L 482.316406 172.972656 L 483.816406 172.972656 L 483.816406 177.472656 M 482.316406 171.472656 L 482.316406 166.972656 L 483.816406 166.972656 L 483.816406 171.472656 M 482.316406 165.472656 L 482.316406 160.972656 L 483.816406 160.972656 L 483.816406 165.472656 M 482.316406 159.472656 L 482.316406 154.972656 L 483.816406 154.972656 L 483.816406 159.472656 M 482.316406 153.472656 L 482.316406 148.972656 L 483.816406 148.972656 L 483.816406 153.472656 M 482.316406 147.472656 L 482.316406 142.972656 L 483.816406 142.972656 L 483.816406 147.472656 M 482.316406 141.472656 L 482.316406 136.972656 L 483.816406 136.972656 L 483.816406 141.472656 M 482.316406 135.472656 L 482.316406 130.972656 L 483.816406 130.972656 L 483.816406 135.472656 M 482.316406 129.472656 L 482.316406 124.972656 L 483.816406 124.972656 L 483.816406 129.472656 M 482.316406 123.472656 L 482.316406 118.972656 L 483.816406 118.972656 L 483.816406 123.472656 M 482.316406 117.472656 L 482.316406 112.972656 L 483.816406 112.972656 L 483.816406 117.472656 M 482.316406 111.472656 L 482.316406 106.972656 L 483.816406 106.972656 L 483.816406 111.472656 M 482.316406 105.472656 L 482.316406 100.972656 L 483.816406 100.972656 L 483.816406 105.472656 M 482.316406 99.472656 L 482.316406 94.972656 L 483.816406 94.972656 L 483.816406 99.472656 M 482.316406 93.472656 L 482.316406 88.972656 L 483.816406 88.972656 L 483.816406 93.472656 M 482.316406 87.472656 L 482.316406 82.972656 L 483.816406 82.972656 L 483.816406 87.472656 M 482.316406 81.472656 L 482.316406 76.972656 L 483.816406 76.972656 L 483.816406 81.472656 M 482.316406 75.472656 L 482.316406 70.972656 L 483.816406 70.972656 L 483.816406 75.472656 M 482.316406 69.472656 L 482.316406 64.972656 L 483.816406 64.972656 L 483.816406 69.472656 M 482.316406 63.472656 L 482.316406 58.972656 L 483.816406 58.972656 L 483.816406 63.472656 M 482.316406 57.472656 L 482.316406 52.972656 L 483.816406 52.972656 L 483.816406 57.472656 M 482.316406 51.472656 L 482.316406 46.972656 L 483.816406 46.972656 L 483.816406 51.472656 M 482.316406 45.472656 L 482.316406 40.972656 L 483.816406 40.972656 L 483.816406 45.472656 M 482.316406 39.472656 L 482.316406 34.972656 L 483.816406 34.972656 L 483.816406 39.472656 M 482.316406 33.472656 L 482.316406 28.972656 L 483.816406 28.972656 L 483.816406 33.472656 M 482.316406 27.472656 L 482.316406 22.972656 L 483.816406 22.972656 L 483.816406 27.472656 M 482.316406 21.472656 L 482.316406 16.972656 L 483.816406 16.972656 L 483.816406 21.472656 M 482.316406 15.472656 L 482.316406 10.972656 L 483.816406 10.972656 L 483.816406 15.472656 M 482.316406 9.472656 L 482.316406 4.972656 L 483.816406 4.972656 L 483.816406 9.472656 M 482.316406 3.476562 L 482.316406 -1.023438 L 483.816406 -1.023438 L 483.816406 3.476562 M 482.316406 -2.523438 L 482.316406 -7.023438 L 483.816406 -7.023438 L 483.816406 -2.523438 M 482.316406 -8.523438 L 482.316406 -13.023438 L 483.816406 -13.023438 L 483.816406 -8.523438 M 482.316406 -14.523438 L 482.316406 -15.484375 L 483.816406 -15.484375 L 483.816406 -14.523438 " fill-opacity="1" fill-rule="nonzero"/><g clip-path="url(#ff5e967adc)"><g clip-path="url(#dc9cdb16ac)"><path fill="#222222" d="M 468.554688 -14.519531 L 497.589844 -14.519531 L 497.589844 14.519531 L 468.554688 14.519531 Z M 468.554688 -14.519531 " fill-opacity="1" fill-rule="nonzero"/></g></g><g clip-path="url(#624206f00b)"><g clip-path="url(#ea31ecbbe4)"><path fill="#222222" d="M 601.445312 14.207031 L 622.554688 14.207031 L 622.554688 35.320312 L 601.445312 35.320312 Z M 601.445312 14.207031 " fill-opacity="1" fill-rule="nonzero"/></g></g><g clip-path="url(#1c1b365fb1)"><g clip-path="url(#40fd0847b0)"><path fill="#222222" d="M 601.445312 51.324219 L 622.554688 51.324219 L 622.554688 72.4375 L 601.445312 72.4375 Z M 601.445312 51.324219 " fill-opacity="1" fill-rule="nonzero"/></g></g><g clip-path="url(#fb6e659f50)"><g clip-path="url(#f0b1ce6e19)"><path fill="#222222" d="M 601.445312 88.445312 L 622.554688 88.445312 L 622.554688 109.554688 L 601.445312 109.554688 Z M 601.445312 88.445312 " fill-opacity="1" fill-rule="nonzero"/></g></g><g clip-path="url(#ab8f9341c0)"><g clip-path="url(#3c94edee88)"><path fill="#222222" d="M 601.445312 125.5625 L 622.554688 125.5625 L 622.554688 146.675781 L 601.445312 146.675781 Z M 601.445312 125.5625 " fill-opacity="1" fill-rule="nonzero"/></g></g><g clip-path="url(#434058c18c)"><g clip-path="url(#ab37cc05f4)"><path fill="#222222" d="M 601.445312 162.679688 L 622.554688 162.679688 L 622.554688 183.792969 L 601.445312 183.792969 Z M 601.445312 162.679688 " fill-opacity="1" fill-rule="nonzero"/></g></g><g clip-path="url(#02893c100e)"><g clip-path="url(#1a26e76c1c)"><path fill="#222222" d="M 468.554688 183.480469 L 497.589844 183.480469 L 497.589844 212.519531 L 468.554688 212.519531 Z M 468.554688 183.480469 " fill-opacity="1" fill-rule="nonzero"/></g></g><g clip-path="url(#47118b4cbe)"><g clip-path="url(#2a4d8b7b31)"><path fill="#ffffff" d="M -16.734375 84.480469 L 12.300781 84.480469 L 12.300781 113.519531 L -16.734375 113.519531 Z M -16.734375 84.480469 " fill-opacity="1" fill-rule="nonzero"/></g></g><g fill="#ffffff" fill-opacity="1"><g transform="translate(164.712183, 131.122977)"><g><path d="M 23.734375 -20.78125 L 19.09375 -55.515625 L 18.9375 -55.515625 L 14.6875 -20.78125 Z M 2.046875 0 L 11.90625 -69.15625 L 25.8125 -69.15625 L 36.3125 0 L 26.484375 0 L 24.828125 -12.34375 L 13.671875 -12.34375 L 12.1875 0 Z M 2.046875 0 "/></g></g></g><g fill="#ffffff" fill-opacity="1"><g transform="translate(203.060353, 131.122977)"><g><path d="M 3.8125 -19.453125 L 3.8125 -25.625 L 13.796875 -25.625 L 13.796875 -18.65625 C 13.796875 -14.8125 14.117188 -12.109375 14.765625 -10.546875 C 15.421875 -8.992188 16.648438 -8.21875 18.453125 -8.21875 C 20.265625 -8.21875 21.46875 -8.859375 22.0625 -10.140625 C 22.65625 -11.421875 22.953125 -13.515625 22.953125 -16.421875 C 22.953125 -19.328125 22.425781 -21.859375 21.375 -24.015625 C 20.320312 -26.179688 18.660156 -28.441406 16.390625 -30.796875 L 11.28125 -36.0625 C 8.894531 -38.550781 7.039062 -41.128906 5.71875 -43.796875 C 4.394531 -46.472656 3.734375 -49.566406 3.734375 -53.078125 C 3.734375 -58.785156 4.832031 -63.03125 7.03125 -65.8125 C 9.226562 -68.59375 13.007812 -69.984375 18.375 -69.984375 C 23.75 -69.984375 27.382812 -68.363281 29.28125 -65.125 C 31.1875 -61.882812 32.140625 -57.160156 32.140625 -50.953125 L 32.140625 -46.671875 L 22.4375 -46.671875 L 22.4375 -51.625 C 22.4375 -54.976562 22.144531 -57.378906 21.5625 -58.828125 C 20.988281 -60.285156 19.882812 -61.015625 18.25 -61.015625 C 16.613281 -61.015625 15.4375 -60.460938 14.71875 -59.359375 C 14 -58.265625 13.640625 -56.617188 13.640625 -54.421875 C 13.640625 -52.222656 14.003906 -50.46875 14.734375 -49.15625 C 15.460938 -47.84375 16.785156 -46.164062 18.703125 -44.125 L 24.40625 -37.953125 C 27.257812 -34.859375 29.410156 -31.726562 30.859375 -28.5625 C 32.316406 -25.394531 33.046875 -21.9375 33.046875 -18.1875 C 33.046875 -11.71875 31.957031 -6.9375 29.78125 -3.84375 C 27.601562 -0.757812 23.796875 0.78125 18.359375 0.78125 C 12.929688 0.78125 9.148438 -0.9375 7.015625 -4.375 C 4.878906 -7.820312 3.8125 -12.847656 3.8125 -19.453125 Z M 3.8125 -19.453125 "/></g></g></g><g fill="#ffffff" fill-opacity="1"><g transform="translate(238.618862, 131.122977)"><g><path d="M 5.578125 0 L 5.578125 -69.15625 L 16.109375 -69.15625 L 16.109375 0 Z M 5.578125 0 "/></g></g></g><g fill="#ffffff" fill-opacity="1"><g transform="translate(260.30758, 131.122977)"><g><path d="M 23.734375 -20.78125 L 19.09375 -55.515625 L 18.9375 -55.515625 L 14.6875 -20.78125 Z M 2.046875 0 L 11.90625 -69.15625 L 25.8125 -69.15625 L 36.3125 0 L 26.484375 0 L 24.828125 -12.34375 L 13.671875 -12.34375 L 12.1875 0 Z M 2.046875 0 "/></g></g></g></svg>