<svg xmlns="http://www.w3.org/2000/svg" xmlns:xlink="http://www.w3.org/1999/xlink" width="816" zoomAndPan="magnify" viewBox="0 0 612 197.999996" height="264" preserveAspectRatio="xMidYMid meet" version="1.0"><defs><g/><clipPath id="ed84267d44"><path d="M 468.554688 0 L 497.589844 0 L 497.589844 14.519531 L 468.554688 14.519531 Z M 468.554688 0 " clip-rule="nonzero"/></clipPath><clipPath id="c53db99f25"><path d="M 483.070312 -14.519531 C 475.054688 -14.519531 468.554688 -8.019531 468.554688 0 C 468.554688 8.019531 475.054688 14.519531 483.070312 14.519531 C 491.089844 14.519531 497.589844 8.019531 497.589844 0 C 497.589844 -8.019531 491.089844 -14.519531 483.070312 -14.519531 Z M 483.070312 -14.519531 " clip-rule="nonzero"/></clipPath><clipPath id="1c7789f9fe"><path d="M 601.445312 14.207031 L 612 14.207031 L 612 35.320312 L 601.445312 35.320312 Z M 601.445312 14.207031 " clip-rule="nonzero"/></clipPath><clipPath id="c46c865b01"><path d="M 612 14.207031 C 606.171875 14.207031 601.445312 18.933594 601.445312 24.761719 C 601.445312 30.59375 606.171875 35.320312 612 35.320312 C 617.828125 35.320312 622.554688 30.59375 622.554688 24.761719 C 622.554688 18.933594 617.828125 14.207031 612 14.207031 Z M 612 14.207031 " clip-rule="nonzero"/></clipPath><clipPath id="9f35b534fe"><path d="M 601.445312 51.324219 L 612 51.324219 L 612 72.4375 L 601.445312 72.4375 Z M 601.445312 51.324219 " clip-rule="nonzero"/></clipPath><clipPath id="1e4713593c"><path d="M 612 51.324219 C 606.171875 51.324219 601.445312 56.050781 601.445312 61.882812 C 601.445312 67.710938 606.171875 72.4375 612 72.4375 C 617.828125 72.4375 622.554688 67.710938 622.554688 61.882812 C 622.554688 56.050781 617.828125 51.324219 612 51.324219 Z M 612 51.324219 " clip-rule="nonzero"/></clipPath><clipPath id="3ad92a36c2"><path d="M 601.445312 88.445312 L 612 88.445312 L 612 109.554688 L 601.445312 109.554688 Z M 601.445312 88.445312 " clip-rule="nonzero"/></clipPath><clipPath id="f5aed9bdcc"><path d="M 612 88.445312 C 606.171875 88.445312 601.445312 93.171875 601.445312 99 C 601.445312 104.828125 606.171875 109.554688 612 109.554688 C 617.828125 109.554688 622.554688 104.828125 622.554688 99 C 622.554688 93.171875 617.828125 88.445312 612 88.445312 Z M 612 88.445312 " clip-rule="nonzero"/></clipPath><clipPath id="bdbdbab4fa"><path d="M 601.445312 125.5625 L 612 125.5625 L 612 146.675781 L 601.445312 146.675781 Z M 601.445312 125.5625 " clip-rule="nonzero"/></clipPath><clipPath id="d7e94df368"><path d="M 612 125.5625 C 606.171875 125.5625 601.445312 130.289062 601.445312 136.117188 C 601.445312 141.949219 606.171875 146.675781 612 146.675781 C 617.828125 146.675781 622.554688 141.949219 622.554688 136.117188 C 622.554688 130.289062 617.828125 125.5625 612 125.5625 Z M 612 125.5625 " clip-rule="nonzero"/></clipPath><clipPath id="50edd18fce"><path d="M 601.445312 162.679688 L 612 162.679688 L 612 183.792969 L 601.445312 183.792969 Z M 601.445312 162.679688 " clip-rule="nonzero"/></clipPath><clipPath id="3664c1777f"><path d="M 612 162.679688 C 606.171875 162.679688 601.445312 167.40625 601.445312 173.238281 C 601.445312 179.066406 606.171875 183.792969 612 183.792969 C 617.828125 183.792969 622.554688 179.066406 622.554688 173.238281 C 622.554688 167.40625 617.828125 162.679688 612 162.679688 Z M 612 162.679688 " clip-rule="nonzero"/></clipPath><clipPath id="6d419fc471"><path d="M 468.554688 183.480469 L 497.589844 183.480469 L 497.589844 198 L 468.554688 198 Z M 468.554688 183.480469 " clip-rule="nonzero"/></clipPath><clipPath id="b0c8a42d06"><path d="M 483.070312 183.480469 C 475.054688 183.480469 468.554688 189.980469 468.554688 198 C 468.554688 206.019531 475.054688 212.519531 483.070312 212.519531 C 491.089844 212.519531 497.589844 206.019531 497.589844 198 C 497.589844 189.980469 491.089844 183.480469 483.070312 183.480469 Z M 483.070312 183.480469 " clip-rule="nonzero"/></clipPath><clipPath id="7ccf168c9f"><path d="M 0 84.480469 L 12.300781 84.480469 L 12.300781 113.519531 L 0 113.519531 Z M 0 84.480469 " clip-rule="nonzero"/></clipPath><clipPath id="a4f63a106c"><path d="M -2.21875 84.480469 C -10.234375 84.480469 -16.734375 90.980469 -16.734375 99 C -16.734375 107.019531 -10.234375 113.519531 -2.21875 113.519531 C 5.800781 113.519531 12.300781 107.019531 12.300781 99 C 12.300781 90.980469 5.800781 84.480469 -2.21875 84.480469 Z M -2.21875 84.480469 " clip-rule="nonzero"/></clipPath></defs><rect x="-61.2" width="734.4" fill="#ffffff" y="-19.8" height="237.599995" fill-opacity="1"/><rect x="-61.2" width="734.4" fill="#b3221c" y="-19.8" height="237.599995" fill-opacity="1"/><path fill="#000000" d="M 482.316406 213.472656 L 482.316406 208.972656 L 483.816406 208.972656 L 483.816406 213.472656 M 482.316406 207.472656 L 482.316406 202.972656 L 483.816406 202.972656 L 483.816406 207.472656 M 482.316406 201.472656 L 482.316406 196.972656 L 483.816406 196.972656 L 483.816406 201.472656 M 482.316406 195.472656 L 482.316406 190.972656 L 483.816406 190.972656 L 483.816406 195.472656 M 482.316406 189.472656 L 482.316406 184.972656 L 483.816406 184.972656 L 483.816406 189.472656 M 482.316406 183.472656 L 482.316406 178.972656 L 483.816406 178.972656 L 483.816406 183.472656 M 482.316406 177.472656 L 482.316406 172.972656 L 483.816406 172.972656 L 483.816406 177.472656 M 482.316406 171.472656 L 482.316406 166.972656 L 483.816406 166.972656 L 483.816406 171.472656 M 482.316406 165.472656 L 482.316406 160.972656 L 483.816406 160.972656 L 483.816406 165.472656 M 482.316406 159.472656 L 482.316406 154.972656 L 483.816406 154.972656 L 483.816406 159.472656 M 482.316406 153.472656 L 482.316406 148.972656 L 483.816406 148.972656 L 483.816406 153.472656 M 482.316406 147.472656 L 482.316406 142.972656 L 483.816406 142.972656 L 483.816406 147.472656 M 482.316406 141.472656 L 482.316406 136.972656 L 483.816406 136.972656 L 483.816406 141.472656 M 482.316406 135.472656 L 482.316406 130.972656 L 483.816406 130.972656 L 483.816406 135.472656 M 482.316406 129.472656 L 482.316406 124.972656 L 483.816406 124.972656 L 483.816406 129.472656 M 482.316406 123.472656 L 482.316406 118.972656 L 483.816406 118.972656 L 483.816406 123.472656 M 482.316406 117.472656 L 482.316406 112.972656 L 483.816406 112.972656 L 483.816406 117.472656 M 482.316406 111.472656 L 482.316406 106.972656 L 483.816406 106.972656 L 483.816406 111.472656 M 482.316406 105.472656 L 482.316406 100.972656 L 483.816406 100.972656 L 483.816406 105.472656 M 482.316406 99.472656 L 482.316406 94.972656 L 483.816406 94.972656 L 483.816406 99.472656 M 482.316406 93.472656 L 482.316406 88.972656 L 483.816406 88.972656 L 483.816406 93.472656 M 482.316406 87.472656 L 482.316406 82.972656 L 483.816406 82.972656 L 483.816406 87.472656 M 482.316406 81.472656 L 482.316406 76.972656 L 483.816406 76.972656 L 483.816406 81.472656 M 482.316406 75.472656 L 482.316406 70.972656 L 483.816406 70.972656 L 483.816406 75.472656 M 482.316406 69.472656 L 482.316406 64.972656 L 483.816406 64.972656 L 483.816406 69.472656 M 482.316406 63.472656 L 482.316406 58.972656 L 483.816406 58.972656 L 483.816406 63.472656 M 482.316406 57.472656 L 482.316406 52.972656 L 483.816406 52.972656 L 483.816406 57.472656 M 482.316406 51.472656 L 482.316406 46.972656 L 483.816406 46.972656 L 483.816406 51.472656 M 482.316406 45.472656 L 482.316406 40.972656 L 483.816406 40.972656 L 483.816406 45.472656 M 482.316406 39.472656 L 482.316406 34.972656 L 483.816406 34.972656 L 483.816406 39.472656 M 482.316406 33.472656 L 482.316406 28.972656 L 483.816406 28.972656 L 483.816406 33.472656 M 482.316406 27.472656 L 482.316406 22.972656 L 483.816406 22.972656 L 483.816406 27.472656 M 482.316406 21.472656 L 482.316406 16.972656 L 483.816406 16.972656 L 483.816406 21.472656 M 482.316406 15.472656 L 482.316406 10.972656 L 483.816406 10.972656 L 483.816406 15.472656 M 482.316406 9.472656 L 482.316406 4.972656 L 483.816406 4.972656 L 483.816406 9.472656 M 482.316406 3.476562 L 482.316406 -1.023438 L 483.816406 -1.023438 L 483.816406 3.476562 M 482.316406 -2.523438 L 482.316406 -7.023438 L 483.816406 -7.023438 L 483.816406 -2.523438 M 482.316406 -8.523438 L 482.316406 -13.023438 L 483.816406 -13.023438 L 483.816406 -8.523438 M 482.316406 -14.523438 L 482.316406 -15.484375 L 483.816406 -15.484375 L 483.816406 -14.523438 " fill-opacity="1" fill-rule="nonzero"/><g clip-path="url(#ed84267d44)"><g clip-path="url(#c53db99f25)"><path fill="#222222" d="M 468.554688 -14.519531 L 497.589844 -14.519531 L 497.589844 14.519531 L 468.554688 14.519531 Z M 468.554688 -14.519531 " fill-opacity="1" fill-rule="nonzero"/></g></g><g clip-path="url(#1c7789f9fe)"><g clip-path="url(#c46c865b01)"><path fill="#222222" d="M 601.445312 14.207031 L 622.554688 14.207031 L 622.554688 35.320312 L 601.445312 35.320312 Z M 601.445312 14.207031 " fill-opacity="1" fill-rule="nonzero"/></g></g><g clip-path="url(#9f35b534fe)"><g clip-path="url(#1e4713593c)"><path fill="#222222" d="M 601.445312 51.324219 L 622.554688 51.324219 L 622.554688 72.4375 L 601.445312 72.4375 Z M 601.445312 51.324219 " fill-opacity="1" fill-rule="nonzero"/></g></g><g clip-path="url(#3ad92a36c2)"><g clip-path="url(#f5aed9bdcc)"><path fill="#222222" d="M 601.445312 88.445312 L 622.554688 88.445312 L 622.554688 109.554688 L 601.445312 109.554688 Z M 601.445312 88.445312 " fill-opacity="1" fill-rule="nonzero"/></g></g><g clip-path="url(#bdbdbab4fa)"><g clip-path="url(#d7e94df368)"><path fill="#222222" d="M 601.445312 125.5625 L 622.554688 125.5625 L 622.554688 146.675781 L 601.445312 146.675781 Z M 601.445312 125.5625 " fill-opacity="1" fill-rule="nonzero"/></g></g><g clip-path="url(#50edd18fce)"><g clip-path="url(#3664c1777f)"><path fill="#222222" d="M 601.445312 162.679688 L 622.554688 162.679688 L 622.554688 183.792969 L 601.445312 183.792969 Z M 601.445312 162.679688 " fill-opacity="1" fill-rule="nonzero"/></g></g><g clip-path="url(#6d419fc471)"><g clip-path="url(#b0c8a42d06)"><path fill="#222222" d="M 468.554688 183.480469 L 497.589844 183.480469 L 497.589844 212.519531 L 468.554688 212.519531 Z M 468.554688 183.480469 " fill-opacity="1" fill-rule="nonzero"/></g></g><g clip-path="url(#7ccf168c9f)"><g clip-path="url(#a4f63a106c)"><path fill="#ffffff" d="M -16.734375 84.480469 L 12.300781 84.480469 L 12.300781 113.519531 L -16.734375 113.519531 Z M -16.734375 84.480469 " fill-opacity="1" fill-rule="nonzero"/></g></g><g fill="#ffffff" fill-opacity="1"><g transform="translate(118.265807, 132.12846)"><g><path d="M 23.734375 -20.78125 L 19.09375 -55.515625 L 18.9375 -55.515625 L 14.6875 -20.78125 Z M 2.046875 0 L 11.90625 -69.15625 L 25.8125 -69.15625 L 36.3125 0 L 26.484375 0 L 24.828125 -12.34375 L 13.671875 -12.34375 L 12.1875 0 Z M 2.046875 0 "/></g></g></g><g fill="#ffffff" fill-opacity="1"><g transform="translate(156.613977, 132.12846)"><g><path d="M 5.1875 0 L 5.1875 -69.15625 L 18.265625 -69.15625 L 28.09375 -18.625 L 37.328125 -69.15625 L 50.484375 -69.15625 L 50.484375 0 L 41.09375 0 L 41.09375 -25.78125 L 41.484375 -49.421875 L 32.171875 -0.3125 L 23.8125 -0.3125 L 14.109375 -49.421875 L 14.5 -25.78125 L 14.5 0 Z M 5.1875 0 "/></g></g></g><g fill="#ffffff" fill-opacity="1"><g transform="translate(212.328837, 132.12846)"><g><path d="M 5.1875 0 L 5.1875 -69.15625 L 28.375 -69.15625 L 28.375 -60.078125 L 15.71875 -60.078125 L 15.71875 -39.953125 L 27.734375 -39.953125 L 27.734375 -31.078125 L 15.71875 -31.078125 L 15.71875 -9.078125 L 28.84375 -9.078125 L 28.84375 0 Z M 5.1875 0 "/></g></g></g><g fill="#ffffff" fill-opacity="1"><g transform="translate(244.390421, 132.12846)"><g><path d="M 19.09375 -32.5 L 15.71875 -32.65625 L 15.71875 0 L 5.1875 0 L 5.1875 -69.15625 L 22.59375 -69.15625 C 26.207031 -69.15625 28.90625 -68.425781 30.6875 -66.96875 C 32.46875 -65.519531 33.640625 -63.488281 34.203125 -60.875 C 34.765625 -58.269531 35.046875 -54.863281 35.046875 -50.65625 C 35.046875 -46.457031 34.597656 -43.257812 33.703125 -41.0625 C 32.816406 -38.863281 31.171875 -37.382812 28.765625 -36.625 C 31.148438 -36.195312 32.8125 -34.582031 33.75 -31.78125 C 34.695312 -28.976562 35.171875 -23.144531 35.171875 -14.28125 C 35.171875 -5.414062 35.300781 -0.65625 35.5625 0 L 25.03125 0 C 24.769531 -0.519531 24.640625 -8.785156 24.640625 -24.796875 C 24.640625 -27.859375 24.269531 -29.894531 23.53125 -30.90625 C 22.800781 -31.914062 21.320312 -32.445312 19.09375 -32.5 Z M 15.75 -40.828125 L 19.953125 -40.828125 C 21.296875 -40.828125 22.285156 -41.125 22.921875 -41.71875 C 23.566406 -42.320312 24.015625 -43.359375 24.265625 -44.828125 C 24.515625 -46.296875 24.640625 -48.535156 24.640625 -51.546875 L 24.640625 -51.984375 C 24.640625 -55.722656 24.320312 -58.171875 23.6875 -59.328125 C 23.0625 -60.484375 21.609375 -61.0625 19.328125 -61.0625 L 15.75 -61.0625 Z M 15.75 -40.828125 "/></g></g></g><g fill="#ffffff" fill-opacity="1"><g transform="translate(284.07449, 132.12846)"><g><path d="M 5.578125 0 L 5.578125 -69.15625 L 16.109375 -69.15625 L 16.109375 0 Z M 5.578125 0 "/></g></g></g><g fill="#ffffff" fill-opacity="1"><g transform="translate(305.763209, 132.12846)"><g><path d="M 34.375 -18.859375 C 34.375 -12.179688 33.179688 -7.238281 30.796875 -4.03125 C 28.421875 -0.820312 24.675781 0.78125 19.5625 0.78125 C 14.457031 0.78125 10.640625 -0.925781 8.109375 -4.34375 C 5.585938 -7.757812 4.328125 -12.675781 4.328125 -19.09375 L 4.328125 -49.234375 C 4.328125 -59.523438 7.023438 -65.957031 12.421875 -68.53125 C 14.410156 -69.46875 16.816406 -69.9375 19.640625 -69.9375 C 29.359375 -69.9375 34.21875 -63.804688 34.21875 -51.546875 L 34.21875 -42.046875 L 24.046875 -42.046875 L 24.046875 -50.875 C 24.046875 -54.4375 23.742188 -56.984375 23.140625 -58.515625 C 22.535156 -60.054688 21.351562 -60.828125 19.59375 -60.828125 C 17.84375 -60.828125 16.628906 -60.015625 15.953125 -58.390625 C 15.273438 -56.765625 14.9375 -54.273438 14.9375 -50.921875 L 14.9375 -18.625 C 14.9375 -14.90625 15.257812 -12.242188 15.90625 -10.640625 C 16.5625 -9.046875 17.753906 -8.25 19.484375 -8.25 C 21.210938 -8.25 22.40625 -9.0625 23.0625 -10.6875 C 23.71875 -12.3125 24.046875 -14.992188 24.046875 -18.734375 L 24.046875 -28.640625 L 34.375 -28.640625 Z M 34.375 -18.859375 "/></g></g></g><g fill="#ffffff" fill-opacity="1"><g transform="translate(343.522022, 132.12846)"><g><path d="M 23.734375 -20.78125 L 19.09375 -55.515625 L 18.9375 -55.515625 L 14.6875 -20.78125 Z M 2.046875 0 L 11.90625 -69.15625 L 25.8125 -69.15625 L 36.3125 0 L 26.484375 0 L 24.828125 -12.34375 L 13.671875 -12.34375 L 12.1875 0 Z M 2.046875 0 "/></g></g></g></svg>